<svg xmlns="http://www.w3.org/2000/svg" width="1024" height="1024" viewBox="0 0 1024 1024">
  <defs>
    <linearGradient id="bg" x1="0" y1="0" x2="1" y2="1">
      <stop offset="0" stop-color="#102B46"/>
      <stop offset="1" stop-color="#071A2D"/>
    </linearGradient>
    <linearGradient id="gold" x1="0" y1="0" x2="1" y2="1">
      <stop offset="0" stop-color="#FFE6A0"/>
      <stop offset="0.45" stop-color="#D6A84E"/>
      <stop offset="1" stop-color="#9A6720"/>
    </linearGradient>
    <filter id="shadow" x="-30%" y="-30%" width="160%" height="160%">
      <feDropShadow dx="0" dy="24" stdDeviation="24" flood-color="#020A13" flood-opacity=".38"/>
    </filter>
  </defs>
  <rect x="48" y="48" width="928" height="928" rx="218" fill="url(#bg)"/>
  <circle cx="512" cy="512" r="274" fill="none" stroke="#234765" stroke-width="22"/>
  <circle cx="512" cy="512" r="222" fill="url(#gold)" filter="url(#shadow)"/>
  <circle cx="512" cy="512" r="184" fill="#102B46"/>
  <path d="M398 638V386h52l62 110 62-110h52v252h-58V484l-56 98h-1l-56-97v153z" fill="#F8FAFC"/>
  <path d="M660 646c73-35 116-103 116-184" fill="none" stroke="#19B77A" stroke-width="27" stroke-linecap="round"/>
  <path d="m748 448 31 14-4 34" fill="none" stroke="#19B77A" stroke-width="27" stroke-linecap="round" stroke-linejoin="round"/>
</svg>
